<svg preserveAspectRatio="none" overflow="visible" style="display: block;" width="28" height="28" viewBox="0 0 28 28" fill="none" xmlns="http://www.w3.org/2000/svg">
<path id="Vector" d="M15.0121 0.273938C14.7059 0.0945564 14.3574 0 14.0025 0C13.6477 0 13.2992 0.0945564 12.993 0.273938L0.989999 7.30345C0.689516 7.48004 0.440482 7.73219 0.267647 8.03484C0.0948125 8.33748 0.00419482 8.68008 0.00480062 9.0286C0.00540642 9.37711 0.0972145 9.7194 0.2711 10.0214C0.444986 10.3235 0.694895 10.5748 0.99599 10.7503L12.997 17.7439C13.3022 17.9218 13.6492 18.0155 14.0025 18.0155C14.3559 18.0155 14.7029 17.9218 15.0081 17.7439L27.0091 10.7503C27.3105 10.5745 27.5605 10.3229 27.7344 10.0205C27.9082 9.71801 27.9998 9.3753 28 9.02645C28.0002 8.67761 27.909 8.33479 27.7355 8.03214C27.562 7.72949 27.3123 7.47757 27.0111 7.30145L15.0121 0.273938ZM0.163171 13.3205L13.0209 20.5537C13.3198 20.7216 13.6568 20.8099 13.9995 20.8099C14.3423 20.8099 14.6793 20.7216 14.9782 20.5537L27.8359 13.3205C28.0292 13.7687 28.0516 14.2722 27.8989 14.7358C27.7461 15.1994 27.4289 15.5911 27.0071 15.8367L15.0041 22.8303C14.6991 23.0078 14.3525 23.1013 13.9995 23.1013C13.6466 23.1013 13.3 23.0078 12.995 22.8303L0.991996 15.8367C0.570181 15.5911 0.252952 15.1994 0.100243 14.7358C-0.0524667 14.2722 -0.0300808 13.7687 0.163171 13.3205ZM0.163171 18.2192L13.0209 25.4524C13.3198 25.6203 13.6568 25.7085 13.9995 25.7085C14.3423 25.7085 14.6793 25.6203 14.9782 25.4524L27.8359 18.2192C28.0292 18.6674 28.0516 19.1709 27.8989 19.6345C27.7461 20.0981 27.4289 20.4897 27.0071 20.7354L15.0041 27.729C14.6991 27.9065 14.3525 28 13.9995 28C13.6466 28 13.3 27.9065 12.995 27.729L0.991996 20.7354C0.570181 20.4897 0.252952 20.0981 0.100243 19.6345C-0.0524667 19.1709 -0.0300808 18.6674 0.163171 18.2192Z" fill="white"/>
</svg>
