<svg preserveAspectRatio="none" overflow="visible" style="display: block;" width="17.5" height="24.5" viewBox="0 0 17.5 24.5" fill="none" xmlns="http://www.w3.org/2000/svg">
<path id="Vector" fill-rule="evenodd" clip-rule="evenodd" d="M0.875 0C0.642936 0 0.420376 0.0921872 0.256282 0.256282C0.0921874 0.420376 0 0.642936 0 0.875V23.625C0 23.8571 0.0921874 24.0796 0.256282 24.2437C0.420376 24.4078 0.642936 24.5 0.875 24.5H16.625C16.8571 24.5 17.0796 24.4078 17.2437 24.2437C17.4078 24.0796 17.5 23.8571 17.5 23.625V0.875C17.5 0.642936 17.4078 0.420376 17.2437 0.256282C17.0796 0.0921872 16.8571 0 16.625 0H0.875ZM14 7.875H3.5V6.125H14V7.875ZM14 13.125H3.5V11.375H14V13.125ZM3.5 18.375H10.5V16.625H3.5V18.375Z" fill="white"/>
</svg>
